<svg width="111" height="70" fill="none" xmlns="http://www.w3.org/2000/svg"><path d="M20.688 69.152c19.68 0 33.792-23.04 33.792-44.064C54.48 10.496 46.8.896 34.128.896 14.448.896.336 23.84.336 44.864c0 14.688 7.68 24.288 20.352 24.288zm.288-4.608c-9.984 0-15.84-7.968-15.84-20.064 0-17.664 11.808-38.976 28.8-38.976 9.984 0 15.84 7.872 15.84 19.968 0 17.76-11.904 39.072-28.8 39.072zM57.085 68h44.832l.96-4.704H65.245L90.3 45.344c11.136-8.16 20.544-17.664 20.544-28.896 0-8.832-6.528-15.552-16.992-15.552-8.544 0-17.376 4.128-24.96 12.48l3.168 3.168C78.589 9.44 86.269 5.312 93.757 5.312c7.584 0 12.288 5.088 12.288 11.52 0 9.216-8.736 17.76-18.528 24.96l-29.568 21.6L57.085 68z" fill="#8C64FF"/></svg>