<svg width="48" height="29" fill="none" xmlns="http://www.w3.org/2000/svg"><path d="M9.44 28.48c8.36 0 14.32-9.4 14.32-18.2C23.76 4.12 20.44.04 15 .04 6.64.04.68 9.44.68 18.24c0 6.2 3.28 10.24 8.76 10.24zm.12-2.4c-4 0-6.36-3.16-6.36-8 0-7.12 4.84-15.64 11.64-15.64 4 0 6.36 3.16 6.36 7.92 0 7.16-4.76 15.72-11.64 15.72zM24.832 28h18.8l.56-2.44h-14.8l9.48-6.84c4.68-3.44 8.68-7.36 8.68-12.16 0-3.88-3-6.52-7.28-6.52-3.88 0-7.48 1.8-10.52 5.2l1.64 1.64c2.52-2.76 5.48-4.52 8.72-4.52 2.84 0 4.84 1.76 4.84 4.4 0 3.76-3.64 7.24-7.64 10.16l-12.04 8.84-.44 2.24z" fill="#8C64FF"/></svg>