<svg width="48" height="29" fill="none" xmlns="http://www.w3.org/2000/svg"><path d="M9.44 28.48c8.36 0 14.32-9.4 14.32-18.2C23.76 4.12 20.44.04 15 .04 6.64.04.68 9.44.68 18.24c0 6.2 3.28 10.24 8.76 10.24zm.12-2.4c-4 0-6.36-3.16-6.36-8 0-7.12 4.84-15.64 11.64-15.64 4 0 6.36 3.16 6.36 7.92 0 7.16-4.76 15.72-11.64 15.72zm24.712 2.4c5.64 0 10.92-4 10.92-9.24 0-3-2.08-4.72-4.44-5.24 3.76-1.08 6.52-4 6.52-7.76 0-3.64-3.04-6.2-7.56-6.2-3.88 0-7.24 1.88-10.12 4.92l1.52 1.68c2.56-2.64 5.24-4.24 8.32-4.24s5.24 1.8 5.24 4.24c0 3.8-3.76 6.28-8.08 6.28l-2.68-.04-.52 2.4h2.88c4.04 0 6.36 1.32 6.36 3.92 0 3.8-3.92 6.92-8.2 6.92-3.32 0-5.68-1.56-7.04-4.16l-2 1.56c1.64 2.92 4.6 4.96 8.88 4.96z" fill="#8C64FF"/></svg>