<svg width="107" height="68" fill="none" xmlns="http://www.w3.org/2000/svg"><path d="M20.215 68C39.763 68 53.78 45.046 53.78 24.101 53.78 9.564 46.15 0 33.565 0 14.017 0 0 22.858 0 43.803 0 58.436 7.628 68 20.215 68zm.286-4.59c-9.917 0-15.733-7.939-15.733-19.99 0-17.597 11.728-38.83 28.606-38.83 9.917 0 15.733 7.843 15.733 19.894 0 17.693-11.824 38.925-28.606 38.925zm66.665 3.442h4.768l3.624-17.12h10.488l.954-4.59H96.416l9.154-43.994h-6.103L57.988 45.333l-.19 4.4H90.79l-3.624 17.12zm-23.361-21.71L99.753 6.886l-8.105 38.256H63.805z" fill="#8C64FF"/></svg>