<svg width="270" height="78" fill="none" xmlns="http://www.w3.org/2000/svg"><path d="M.568 76h50.76l1.512-6.588H12.88l25.596-18.468c12.636-9.288 23.436-19.872 23.436-32.832 0-10.476-8.1-17.604-19.656-17.604-10.476 0-20.196 4.86-28.404 14.04l4.428 4.428c6.804-7.452 14.796-12.204 23.544-12.204 7.668 0 13.068 4.752 13.068 11.88 0 10.152-9.828 19.548-20.628 27.432L1.756 69.952.568 76zm94.601 1.296c22.572 0 38.664-25.38 38.664-49.14 0-16.632-8.964-27.648-23.652-27.648-22.572 0-38.664 25.38-38.664 49.14 0 16.74 8.856 27.648 23.652 27.648zm.324-6.48c-10.8 0-17.172-8.532-17.172-21.6 0-19.224 13.068-42.228 31.428-42.228 10.8 0 17.172 8.532 17.172 21.384 0 19.332-12.852 42.444-31.428 42.444zm72.555 6.48c22.572 0 38.664-25.38 38.664-49.14 0-16.632-8.964-27.648-23.652-27.648-22.572 0-38.664 25.38-38.664 49.14 0 16.74 8.856 27.648 23.652 27.648zm.324-6.48c-10.8 0-17.172-8.532-17.172-21.6 0-19.224 13.068-42.228 31.428-42.228 10.8 0 17.172 8.532 17.172 21.384 0 19.332-12.852 42.444-31.428 42.444zM269.331 36.58h-21.492l4.536-21.492h-6.696l-4.536 21.492h-21.384l-1.512 6.696h21.492l-4.428 21.384h6.696l4.428-21.384h21.384l1.512-6.696z" fill="#363636"/></svg>