<svg width="335" height="99" fill="none" xmlns="http://www.w3.org/2000/svg"><path d="M12.056 43h3.696l9.216-28.08L34.136 43h3.696l11.28-32.976h-4.224l-9.12 26.688-8.736-26.688h-4.176L14.12 36.712 5 10.024H.776L12.056 43zm66.291-29.424v-3.552H54.683V43h23.664v-3.552H58.475V27.976h17.904v-3.552H58.474V13.576h19.873zM125.53 43h4.08l-14.544-32.976h-4.08L96.442 43h4.08l3.312-7.488h18.384L125.53 43zm-20.16-11.04l7.68-17.328 7.632 17.328H105.37zm55.099-11.376c0-6.192-5.328-10.56-12.144-10.56h-13.392V43h3.743V31.144h8.737L155.764 43h4.272l-8.543-12.192c5.232-1.104 8.976-5.04 8.976-10.224zm-21.793-7.008h8.976c5.376 0 9.024 2.592 9.024 7.008s-3.648 7.008-9.024 7.008h-8.976V13.576zm51.139 0v-3.552h-23.664V43h23.664v-3.552h-19.872V27.976h17.904v-3.552h-17.904V13.576h19.872zm-100.235 85c4.56 0 8.784-1.968 11.856-5.04l-2.544-2.592c-2.4 2.544-5.712 4.176-9.312 4.176-7.104 0-13.104-6.24-13.104-13.632 0-7.344 6-13.584 13.104-13.584 3.6 0 6.912 1.632 9.312 4.176l2.544-2.592c-3.072-3.12-7.296-5.04-11.856-5.04-9.12 0-16.896 7.776-16.896 17.04S80.46 98.576 89.58 98.576zm40.209-33.552v14.4h-19.44v-14.4h-3.744V98h3.744V82.976h19.44V98h3.744V65.024h-3.744zM167.937 98h4.08l-14.544-32.976h-4.08L138.849 98h4.08l3.312-7.488h18.384L167.937 98zm-20.16-11.04l7.68-17.328 7.632 17.328h-15.312zM178.059 98h3.744V71.168L202.251 98h3.744V65.024h-3.744v26.832l-20.448-26.832h-3.744V98zm51.433-13.824h9.456v7.872c-2.448 1.872-6 3.072-9.072 3.072-7.104 0-13.104-6.24-13.104-13.632 0-7.344 6-13.584 13.104-13.584 3.6 0 7.872 1.632 10.272 4.176l2.544-2.592c-3.072-3.12-8.256-5.04-12.816-5.04-9.12 0-16.896 7.776-16.896 17.04s7.776 17.088 16.896 17.088c4.56 0 9.744-1.968 12.816-5.04V80.624h-13.2v3.552zm44.214-15.6v-3.552h-23.664V98h23.664v-3.552h-19.872V82.976h17.904v-3.552h-17.904V68.576h19.872zm31.966 7.008c0-6.192-5.328-10.56-12.144-10.56h-13.392V98h3.744V86.144h8.736L300.968 98h4.272l-8.544-12.192c5.232-1.104 8.976-5.04 8.976-10.224zm-21.792-7.008h8.976c5.376 0 9.024 2.592 9.024 7.008s-3.648 7.008-9.024 7.008h-8.976V68.576zm38.899 29.952c7.68 0 11.616-4.272 11.616-9.504 0-5.808-4.512-8.064-10.8-9.552-5.616-1.344-8.88-2.544-8.88-5.952 0-3.024 2.976-5.712 7.056-5.712 3.456 0 6.72 1.584 9.456 4.224l2.304-2.928c-3.024-2.784-6.672-4.704-11.568-4.704-6.336 0-11.04 4.128-11.04 9.408 0 5.712 4.176 7.776 10.8 9.312 5.76 1.344 8.88 2.736 8.88 6.24 0 2.976-2.592 5.76-7.68 5.76-4.608 0-8.016-1.968-10.8-4.752l-2.352 2.928c3.312 3.264 7.584 5.232 13.008 5.232z" fill="#353535"/><path d="M224.5 0l.476 6.998c.62 9.134 7.892 16.406 17.026 17.026L249 24.5l-6.998.476c-9.134.62-16.406 7.892-17.026 17.026L224.5 49l-.476-6.998c-.62-9.134-7.892-16.406-17.026-17.026L200 24.5l6.998-.476c9.134-.62 16.406-7.892 17.026-17.026L224.5 0z" fill="#8C64FF"/></svg>