<svg width="188" height="188" fill="none" xmlns="http://www.w3.org/2000/svg"><circle cx="94" cy="94" r="94" fill="#8C64FF"/><path d="M54.958 90.523H52.27l-.924-16.716-7.924 16.716h-2.604l-1.484-19.992h2.856l.7 16.436 7.784-16.352h2.744l.896 16.352 7.616-16.436h2.828l-9.8 19.992zm10.874.336c-1.27 0-2.296-.336-3.08-1.008-.784-.69-1.176-1.642-1.176-2.856 0-1.026.214-1.876.644-2.548a5.09 5.09 0 0 1 1.764-1.624c.746-.41 1.614-.7 2.604-.868a20.974 20.974 0 0 1 3.164-.336l2.744-.084.084-.392a5.49 5.49 0 0 0 .14-1.148c0-.746-.224-1.344-.672-1.792-.43-.466-1.176-.7-2.24-.7-1.176 0-2.054.16-2.632.476-.58.318-1.027.896-1.344 1.736l-2.212-.28c.448-1.4 1.185-2.389 2.212-2.968 1.045-.578 2.445-.868 4.2-.868 1.698 0 2.968.383 3.808 1.148.84.766 1.26 1.82 1.26 3.164 0 .58-.066 1.14-.196 1.68l-1.876 8.932h-2.38l.42-1.988a9.006 9.006 0 0 1-2.212 1.68c-.803.43-1.811.644-3.024.644zm6.3-7.616l-2.408.112c-1.083.056-1.988.168-2.716.336-.71.15-1.288.364-1.736.644a2.4 2.4 0 0 0-.924 1.064c-.168.411-.252.896-.252 1.456 0 .56.186 1.036.56 1.428.373.392.98.588 1.82.588.672 0 1.306-.102 1.904-.308a5.25 5.25 0 0 0 1.568-.84 5.026 5.026 0 0 0 1.176-1.26 4.865 4.865 0 0 0 .672-1.568l.336-1.652zm8.514 2.968c-.037.187-.075.364-.112.532-.019.15-.028.3-.028.448 0 1.083.541 1.624 1.624 1.624.41 0 .756-.028 1.036-.084.28-.056.55-.13.812-.224l.392 1.876c-.41.15-.83.262-1.26.336-.43.075-.915.112-1.456.112-1.157 0-2.053-.27-2.688-.812-.616-.56-.924-1.38-.924-2.464 0-.224.01-.448.028-.672a3.83 3.83 0 0 1 .14-.756l1.736-8.148h-2.268l.392-1.932h2.268l.84-3.948h2.436l-.84 3.948h3.836l-.42 1.932h-3.808l-1.736 8.232zm16.692-5.292a8.474 8.474 0 0 0-.252-1.232 2.65 2.65 0 0 0-.56-1.064 2.326 2.326 0 0 0-.952-.728c-.392-.186-.896-.28-1.512-.28-.784 0-1.502.168-2.156.504a4.798 4.798 0 0 0-1.68 1.456c-.466.616-.83 1.372-1.092 2.268-.261.878-.392 1.858-.392 2.94a6.6 6.6 0 0 0 .196 1.652c.15.504.364.943.644 1.316.299.374.672.672 1.12.896.467.206 1.027.308 1.68.308 1.213 0 2.147-.298 2.8-.896.653-.616 1.11-1.4 1.372-2.352h2.492a8.751 8.751 0 0 1-.868 2.184 5.895 5.895 0 0 1-1.428 1.68 6.094 6.094 0 0 1-1.988 1.036c-.765.243-1.642.364-2.632.364-.952 0-1.801-.149-2.548-.448a5.416 5.416 0 0 1-1.876-1.288 5.772 5.772 0 0 1-1.148-1.932 7.237 7.237 0 0 1-.392-2.408c0-1.493.215-2.818.644-3.976.43-1.157 1.008-2.128 1.736-2.912a7.637 7.637 0 0 1 2.576-1.792 8.1 8.1 0 0 1 3.136-.616c.915 0 1.708.131 2.38.392.672.262 1.223.616 1.652 1.064.448.448.784.98 1.008 1.596.243.598.392 1.232.448 1.904l-2.408.364zm13.205 9.604l1.876-8.876c.056-.242.102-.476.14-.7.037-.242.056-.476.056-.7 0-.784-.187-1.4-.56-1.848-.374-.466-.98-.7-1.82-.7-1.083 0-2.138.392-3.164 1.176a9.99 9.99 0 0 0-1.344 1.316c-.374.467-.635 1.055-.784 1.764l-1.82 8.568h-2.436l4.228-19.992h2.436l-1.624 7.644c.84-.952 1.708-1.614 2.604-1.988.896-.392 1.773-.588 2.632-.588 1.344 0 2.37.364 3.08 1.092.709.728 1.064 1.746 1.064 3.052 0 .504-.056 1.036-.168 1.596l-1.96 9.184h-2.436zm24.919-19.992l3.528 19.992h-2.66l-.952-5.572h-8.54l-3.276 5.572h-2.8l12.012-19.992h2.688zm-7.392 12.18h7l-1.568-9.268-5.432 9.268zm12.903 7.812l4.228-19.992h2.436l-4.228 19.992h-2.436zm6.037 0l4.228-19.992h2.436l-4.228 19.992h-2.436zm-74.575 19.56c-.206-1.605-.672-2.809-1.4-3.612-.728-.802-1.876-1.204-3.444-1.204-1.176 0-2.24.271-3.192.812a7.565 7.565 0 0 0-2.408 2.156c-.672.915-1.185 1.988-1.54 3.22a13.713 13.713 0 0 0-.532 3.864c0 .896.103 1.736.308 2.52.224.784.56 1.475 1.008 2.072a4.815 4.815 0 0 0 1.68 1.372c.672.336 1.465.504 2.38.504 1.736 0 3.07-.429 4.004-1.288.952-.858 1.586-1.988 1.904-3.388h2.8a10.674 10.674 0 0 1-1.036 2.8 7.394 7.394 0 0 1-1.764 2.184c-.71.598-1.568 1.074-2.576 1.428-1.008.336-2.175.504-3.5.504-1.232 0-2.343-.205-3.332-.616a7.311 7.311 0 0 1-2.492-1.708c-.672-.746-1.195-1.642-1.568-2.688-.355-1.045-.532-2.202-.532-3.472 0-1.661.233-3.248.7-4.76.485-1.512 1.176-2.837 2.072-3.976a10.076 10.076 0 0 1 3.332-2.744c1.306-.69 2.781-1.036 4.424-1.036 2.277 0 4.013.598 5.208 1.792 1.195 1.176 1.885 2.791 2.072 4.844l-2.576.42zm7.083 13.776c-1.27 0-2.296-.336-3.08-1.008-.784-.69-1.176-1.642-1.176-2.856 0-1.026.214-1.876.644-2.548a5.092 5.092 0 0 1 1.764-1.624c.746-.41 1.614-.7 2.604-.868a20.974 20.974 0 0 1 3.164-.336l2.744-.084.084-.392a5.47 5.47 0 0 0 .14-1.148c0-.746-.224-1.344-.672-1.792-.43-.466-1.176-.7-2.24-.7-1.176 0-2.054.159-2.632.476-.579.318-1.027.896-1.344 1.736l-2.212-.28c.448-1.4 1.185-2.389 2.212-2.968 1.045-.578 2.445-.868 4.2-.868 1.698 0 2.968.383 3.808 1.148.84.766 1.26 1.82 1.26 3.164a7.13 7.13 0 0 1-.196 1.68l-1.876 8.932h-2.38l.42-1.988a8.991 8.991 0 0 1-2.212 1.68c-.803.43-1.811.644-3.024.644zm6.3-7.616l-2.408.112c-1.083.056-1.988.168-2.716.336-.71.15-1.288.364-1.736.644a2.4 2.4 0 0 0-.924 1.064c-.168.411-.252.896-.252 1.456 0 .56.186 1.036.56 1.428.373.392.98.588 1.82.588.672 0 1.306-.102 1.904-.308a5.237 5.237 0 0 0 1.568-.84 5.006 5.006 0 0 0 1.176-1.26 4.863 4.863 0 0 0 .672-1.568l.336-1.652zm16.41 3.164c0 .822-.177 1.522-.532 2.1a4.27 4.27 0 0 1-1.344 1.428c-.56.355-1.213.616-1.96.784-.747.168-1.521.252-2.324.252a10.39 10.39 0 0 1-2.156-.224 5.717 5.717 0 0 1-1.904-.756 4.678 4.678 0 0 1-1.344-1.428c-.336-.597-.504-1.344-.504-2.24h2.324c.019.523.13.962.336 1.316.205.336.476.607.812.812a3.65 3.65 0 0 0 1.176.448 8.83 8.83 0 0 0 1.456.112c1.213 0 2.09-.233 2.632-.7.56-.466.84-1.064.84-1.792 0-.616-.159-1.082-.476-1.4-.299-.317-.859-.569-1.68-.756l-1.624-.364c-1.456-.317-2.492-.784-3.108-1.4-.616-.616-.924-1.428-.924-2.436 0-.784.159-1.456.476-2.016a4.126 4.126 0 0 1 1.288-1.428 5.947 5.947 0 0 1 1.876-.84 9.242 9.242 0 0 1 2.296-.28c1.717 0 3.024.364 3.92 1.092.915.71 1.447 1.727 1.596 3.052l-2.24.336c-.149-.84-.467-1.474-.952-1.904-.485-.429-1.307-.644-2.464-.644-.653 0-1.204.066-1.652.196-.43.131-.784.308-1.064.532a1.951 1.951 0 0 0-.56.756c-.112.28-.168.56-.168.84 0 .56.168 1.008.504 1.344.336.318.97.579 1.904.784l1.708.364c1.325.262 2.296.719 2.912 1.372.616.635.924 1.531.924 2.688zm10.247-8.932c-1.232 0-2.286.374-3.164 1.12-.877.747-1.493 1.904-1.848 3.472h8.372c.019-.149.028-.298.028-.448a4.48 4.48 0 0 0 .028-.504c0-.485-.074-.942-.224-1.372a3.212 3.212 0 0 0-.616-1.176 2.825 2.825 0 0 0-1.064-.784c-.429-.205-.933-.308-1.512-.308zm-5.32 6.412a5 5 0 0 0-.028.532v.504c0 .542.084 1.064.252 1.568.168.486.411.915.728 1.288a3.74 3.74 0 0 0 1.232.896c.504.224 1.092.336 1.764.336 1.158 0 2.026-.214 2.604-.644.579-.448 1.008-1.082 1.288-1.904h2.38a7.428 7.428 0 0 1-.84 1.876 4.95 4.95 0 0 1-1.288 1.428c-.504.392-1.12.691-1.848.896-.709.206-1.549.308-2.52.308-.989 0-1.866-.158-2.632-.476a6.202 6.202 0 0 1-1.932-1.344 5.857 5.857 0 0 1-1.204-1.96 7.243 7.243 0 0 1-.392-2.408c0-1.474.206-2.781.616-3.92.411-1.138.971-2.1 1.68-2.884a6.795 6.795 0 0 1 2.52-1.764 8.185 8.185 0 0 1 3.164-.616c.915 0 1.718.14 2.408.42.691.28 1.27.672 1.736 1.176a4.834 4.834 0 0 1 1.064 1.736c.243.672.364 1.4.364 2.184 0 .318-.009.682-.028 1.092a6.338 6.338 0 0 1-.168 1.204l-.112.476h-10.808zm24.509 2.52c0 .822-.177 1.522-.532 2.1a4.27 4.27 0 0 1-1.344 1.428c-.56.355-1.213.616-1.96.784a10.55 10.55 0 0 1-2.324.252c-.728 0-1.446-.074-2.156-.224a5.72 5.72 0 0 1-1.904-.756 4.685 4.685 0 0 1-1.344-1.428c-.336-.597-.504-1.344-.504-2.24h2.324c.019.523.131.962.336 1.316.206.336.476.607.812.812a3.65 3.65 0 0 0 1.176.448 8.84 8.84 0 0 0 1.456.112c1.214 0 2.091-.233 2.632-.7.56-.466.84-1.064.84-1.792 0-.616-.158-1.082-.476-1.4-.298-.317-.858-.569-1.68-.756l-1.624-.364c-1.456-.317-2.492-.784-3.108-1.4-.616-.616-.924-1.428-.924-2.436 0-.784.159-1.456.476-2.016a4.135 4.135 0 0 1 1.288-1.428 5.957 5.957 0 0 1 1.876-.84 9.246 9.246 0 0 1 2.296-.28c1.718 0 3.024.364 3.92 1.092.915.71 1.447 1.727 1.596 3.052l-2.24.336c-.149-.84-.466-1.474-.952-1.904-.485-.429-1.306-.644-2.464-.644-.653 0-1.204.066-1.652.196-.429.131-.784.308-1.064.532a1.954 1.954 0 0 0-.56.756c-.112.28-.168.56-.168.84 0 .56.168 1.008.504 1.344.336.318.971.579 1.904.784l1.708.364c1.326.262 2.296.719 2.912 1.372.616.635.924 1.531.924 2.688z" fill="#fff"/></svg>