<svg width="1327" height="242" fill="none" xmlns="http://www.w3.org/2000/svg"><path d="M45.712 103.536c24.448 0 44.928-20.864 44.928-45.568 0-24.704-20.48-45.44-44.928-45.44-24.32 0-45.056 20.736-45.056 45.44 0 24.704 20.736 45.568 45.056 45.568zm0-9.216c-18.944 0-34.944-16.64-34.944-36.352 0-19.584 16-36.224 34.944-36.224 18.944 0 34.816 16.64 34.816 36.224 0 19.712-15.872 36.352-34.816 36.352zm99.282 9.216c21.504 0 36.736-15.744 36.736-38.016V14.064h-9.984V65.52c0 16.896-11.136 28.928-26.752 28.928s-26.752-12.032-26.752-28.928V14.064h-9.984V65.52c0 22.272 15.232 38.016 36.736 38.016zm125.964-61.312c0-16.512-14.208-28.16-32.384-28.16h-35.712V102h9.984V70.384h23.296L258.414 102h11.392l-22.784-32.512c13.952-2.944 23.936-13.44 23.936-27.264zm-58.112-18.688h23.936c14.336 0 24.064 6.912 24.064 18.688s-9.728 18.688-24.064 18.688h-23.936V23.536zm172.215-9.472v38.4h-51.84v-38.4h-9.984V102h9.984V61.936h51.84V102h9.984V14.064h-9.984zM415.237 102h9.984V14.064h-9.984V102zm60.714 1.408c20.48 0 30.976-11.392 30.976-25.344 0-15.488-12.032-21.504-28.8-25.472-14.976-3.584-23.68-6.784-23.68-15.872 0-8.064 7.936-15.232 18.816-15.232 9.216 0 17.92 4.224 25.216 11.264l6.144-7.808C496.559 17.52 486.831 12.4 473.775 12.4c-16.896 0-29.44 11.008-29.44 25.088 0 15.232 11.136 20.736 28.8 24.832 15.36 3.584 23.68 7.296 23.68 16.64 0 7.936-6.912 15.36-20.48 15.36-12.288 0-21.376-5.248-28.8-12.672l-6.272 7.808c8.832 8.704 20.224 13.952 34.688 13.952zM549.203 102h9.984V23.536h29.568v-9.472h-69.12v9.472h29.568V102zm91.509 1.536c24.448 0 44.928-20.864 44.928-45.568 0-24.704-20.48-45.44-44.928-45.44-24.32 0-45.056 20.736-45.056 45.44 0 24.704 20.736 45.568 45.056 45.568zm0-9.216c-18.944 0-34.944-16.64-34.944-36.352 0-19.584 16-36.224 34.944-36.224 18.944 0 34.816 16.64 34.816 36.224 0 19.712-15.872 36.352-34.816 36.352zm129.746-52.096c0-16.512-14.208-28.16-32.384-28.16h-35.712V102h9.984V70.384h23.296L757.914 102h11.392l-22.784-32.512c13.952-2.944 23.936-13.44 23.936-27.264zm-58.112-18.688h23.936c14.336 0 24.064 6.912 24.064 18.688s-9.728 18.688-24.064 18.688h-23.936V23.536zM808.76 102h10.496V66.16l35.328-52.096h-12.032l-28.544 42.624-28.288-42.624h-12.416L808.76 66.16V102zm-52.398 138h9.984v-87.936h-9.984V240zm32.17 0h9.984v-71.552L853.044 240h9.984v-87.936h-9.984v71.552l-54.528-71.552h-9.984V240zm175.305 1.536c12.16 0 23.424-5.248 31.616-13.44l-6.784-6.912c-6.4 6.784-15.232 11.136-24.832 11.136-18.944 0-34.944-16.64-34.944-36.352 0-19.584 16-36.224 34.944-36.224 9.6 0 18.432 4.352 24.832 11.136l6.784-6.912c-8.192-8.32-19.456-13.44-31.616-13.44-24.32 0-45.056 20.736-45.056 45.44 0 24.704 20.736 45.568 45.056 45.568zM1080.79 240h10.88l-38.78-87.936h-10.88L1003.22 240h10.88l8.83-19.968h49.03l8.83 19.968zm-53.76-29.44l20.48-46.208 20.35 46.208h-40.83zm109.3 30.848c20.48 0 30.97-11.392 30.97-25.344 0-15.488-12.03-21.504-28.8-25.472-14.97-3.584-23.68-6.784-23.68-15.872 0-8.064 7.94-15.232 18.82-15.232 9.21 0 17.92 4.224 25.21 11.264l6.15-7.808c-8.07-7.424-17.79-12.544-30.85-12.544-16.9 0-29.44 11.008-29.44 25.088 0 15.232 11.14 20.736 28.8 24.832 15.36 3.584 23.68 7.296 23.68 16.64 0 7.936-6.91 15.36-20.48 15.36-12.29 0-21.38-5.248-28.8-12.672l-6.27 7.808c8.83 8.704 20.22 13.952 34.69 13.952zm111.14-79.872v-9.472h-63.11V240h63.11v-9.472h-53v-30.592h47.75v-9.472h-47.75v-28.928h53zm47.61 79.872c20.48 0 30.97-11.392 30.97-25.344 0-15.488-12.03-21.504-28.8-25.472-14.97-3.584-23.68-6.784-23.68-15.872 0-8.064 7.94-15.232 18.82-15.232 9.21 0 17.92 4.224 25.21 11.264l6.15-7.808c-8.07-7.424-17.79-12.544-30.85-12.544-16.9 0-29.44 11.008-29.44 25.088 0 15.232 11.14 20.736 28.8 24.832 15.36 3.584 23.68 7.296 23.68 16.64 0 7.936-6.91 15.36-20.48 15.36-12.29 0-21.38-5.248-28.8-12.672l-6.27 7.808c8.83 8.704 20.22 13.952 34.69 13.952z" fill="#353535"/><path d="M928.5 0l1.097 16.137c1.431 21.065 18.201 37.835 39.266 39.266L985 56.5l-16.137 1.097c-21.065 1.431-37.835 18.201-39.266 39.266L928.5 113l-1.097-16.137c-1.431-21.065-18.201-37.835-39.266-39.266L872 56.5l16.137-1.097c21.065-1.431 37.835-18.201 39.266-39.266L928.5 0z" fill="#8C64FF"/></svg>