<svg width="699" height="92" fill="none" xmlns="http://www.w3.org/2000/svg"><path d="M45.212 91.536c12.16 0 23.424-5.248 31.616-13.44l-6.784-6.912c-6.4 6.784-15.232 11.136-24.832 11.136-18.944 0-34.944-16.64-34.944-36.352 0-19.584 16-36.224 34.944-36.224 9.6 0 18.432 4.352 24.832 11.136l6.784-6.912C68.636 5.648 57.372.528 45.212.528 20.892.528.156 21.264.156 45.968c0 24.704 20.736 45.568 45.056 45.568zM152.436 2.064v38.4h-51.84v-38.4h-9.984V90h9.984V49.936h51.84V90h9.984V2.064h-9.984zM254.164 90h10.88L226.26 2.064h-10.88L176.596 90h10.88l8.832-19.968h49.024L254.164 90zm-53.76-29.44l20.48-46.208 20.352 46.208h-40.832zM281.157 90h9.984V18.448L345.669 90h9.984V2.064h-9.984v71.552L291.141 2.064h-9.984V90zm137.156-36.864h25.216v20.992c-6.528 4.992-16 8.192-24.192 8.192-18.944 0-34.944-16.64-34.944-36.352 0-19.584 16-36.224 34.944-36.224 9.6 0 20.992 4.352 27.392 11.136l6.784-6.912c-8.192-8.32-22.016-13.44-34.176-13.44-24.32 0-45.056 20.736-45.056 45.44 0 24.704 20.736 45.568 45.056 45.568 12.16 0 25.984-5.248 34.176-13.44V43.664h-35.2v9.472zm117.903-41.6V2.064h-63.104V90h63.104v-9.472h-52.992V49.936h47.744v-9.472h-47.744V11.536h52.992zm85.242 18.688c0-16.512-14.208-28.16-32.384-28.16h-35.712V90h9.984V58.384h23.296L608.914 90h11.392l-22.784-32.512c13.952-2.944 23.936-13.44 23.936-27.264zm-58.112-18.688h23.936c14.336 0 24.064 6.912 24.064 18.688s-9.728 18.688-24.064 18.688h-23.936V11.536zm103.73 79.872c20.48 0 30.976-11.392 30.976-25.344 0-15.488-12.032-21.504-28.8-25.472-14.976-3.584-23.68-6.784-23.68-15.872 0-8.064 7.936-15.232 18.816-15.232 9.216 0 17.92 4.224 25.216 11.264l6.144-7.808C687.684 5.52 677.956.4 664.9.4c-16.896 0-29.44 11.008-29.44 25.088 0 15.232 11.136 20.736 28.8 24.832 15.36 3.584 23.68 7.296 23.68 16.64 0 7.936-6.912 15.36-20.48 15.36-12.288 0-21.376-5.248-28.8-12.672l-6.272 7.808c8.832 8.704 20.224 13.952 34.688 13.952z" fill="#353535"/></svg>