<svg width="1326" height="254" fill="none" xmlns="http://www.w3.org/2000/svg"><path d="M10.688 104.528V26.064H.704V114h57.984v-9.472h-48zm125.528-68.992v-9.472H73.112V114h63.104v-9.472H83.224V73.936h47.744v-9.472H83.224V35.536h52.992zM178.578 114h9.984V35.536h29.568v-9.472h-69.12v9.472h29.568V114zm60.145-57.088c7.68-9.6 9.856-13.952 9.856-19.072 0-5.888-2.944-10.24-7.808-10.24-4.096 0-7.04 3.2-7.04 6.784 0 3.84 3.072 7.04 6.912 7.04-1.024 3.968-3.2 7.936-6.656 11.904l4.736 3.584zm59.478 58.496c20.48 0 30.976-11.392 30.976-25.344 0-15.488-12.032-21.504-28.8-25.472-14.976-3.584-23.68-6.784-23.68-15.872 0-8.064 7.936-15.232 18.816-15.232 9.216 0 17.92 4.224 25.216 11.264l6.144-7.808C318.809 29.52 309.081 24.4 296.025 24.4c-16.896 0-29.44 11.008-29.44 25.088 0 15.232 11.136 20.736 28.8 24.832 15.36 3.584 23.68 7.296 23.68 16.64 0 7.936-6.912 15.36-20.48 15.36-12.288 0-21.376-5.248-28.8-12.672l-6.272 7.808c8.832 8.704 20.224 13.952 34.688 13.952zM408.066 114h9.856l24.576-74.88L466.946 114h9.856l30.08-87.936h-11.264l-24.32 71.168-23.296-71.168h-11.136L413.57 97.232l-24.32-71.168h-11.264L408.066 114zm155.271 1.536c24.448 0 44.928-20.864 44.928-45.568 0-24.704-20.48-45.44-44.928-45.44-24.32 0-45.056 20.736-45.056 45.44 0 24.704 20.736 45.568 45.056 45.568zm0-9.216c-18.944 0-34.944-16.64-34.944-36.352 0-19.584 16-36.224 34.944-36.224 18.944 0 34.816 16.64 34.816 36.224 0 19.712-15.872 36.352-34.816 36.352zm129.746-52.096c0-16.512-14.208-28.16-32.384-28.16h-35.712V114h9.984V82.384h23.296L680.539 114h11.392l-22.784-32.512c13.952-2.944 23.936-13.44 23.936-27.264zm-58.112-18.688h23.936c14.336 0 24.064 6.912 24.064 18.688s-9.728 18.688-24.064 18.688h-23.936V35.536zM709.901 114h9.984V87.632l13.824-14.592L767.117 114h12.928l-39.424-47.744 36.992-40.192h-13.184l-44.544 48.64v-48.64h-9.984V114zm-33.698 138h9.984v-78.464h29.568v-9.472h-69.12v9.472h29.568V252zm91.509 1.536c24.448 0 44.928-20.864 44.928-45.568 0-24.704-20.48-45.44-44.928-45.44-24.32 0-45.056 20.736-45.056 45.44 0 24.704 20.736 45.568 45.056 45.568zm0-9.216c-18.944 0-34.944-16.64-34.944-36.352 0-19.584 16-36.224 34.944-36.224 18.944 0 34.816 16.64 34.816 36.224 0 19.712-15.872 36.352-34.816 36.352zm102.226-29.184h25.216v20.992c-6.528 4.992-16 8.192-24.192 8.192-18.944 0-34.944-16.64-34.944-36.352 0-19.584 16-36.224 34.944-36.224 9.6 0 20.992 4.352 27.392 11.136l6.784-6.912c-8.192-8.32-22.016-13.44-34.176-13.44-24.32 0-45.056 20.736-45.056 45.44 0 24.704 20.736 45.568 45.056 45.568 12.16 0 25.984-5.248 34.176-13.44v-34.432h-35.2v9.472zm117.903-41.6v-9.472h-63.104V252h63.104v-9.472h-52.992v-30.592h47.744v-9.472h-47.744v-28.928h52.992zM1030.2 252h9.99v-78.464h29.57v-9.472h-69.12v9.472h29.56V252zm117.24-87.936v38.4h-51.84v-38.4h-9.99V252h9.99v-40.064h51.84V252h9.98v-87.936h-9.98zm93.28 9.472v-9.472h-63.11V252h63.11v-9.472h-53v-30.592h47.75v-9.472h-47.75v-28.928h53zm85.24 18.688c0-16.512-14.21-28.16-32.39-28.16h-35.71V252h9.99v-31.616h23.29L1313.41 252h11.4l-22.79-32.512c13.95-2.944 23.94-13.44 23.94-27.264zm-58.11-18.688h23.93c14.34 0 24.07 6.912 24.07 18.688s-9.73 18.688-24.07 18.688h-23.93v-37.376z" fill="#353535"/><path d="M864 0l1.339 19.708c1.749 25.724 22.229 46.204 47.953 47.953L933 69l-19.708 1.34c-25.724 1.748-46.204 22.228-47.953 47.952L864 138l-1.339-19.708c-1.749-25.724-22.229-46.204-47.953-47.953L795 69l19.708-1.34c25.724-1.748 46.204-22.228 47.953-47.952L864 0z" fill="#8C64FF"/></svg>