<svg width="1329" height="252" fill="none" xmlns="http://www.w3.org/2000/svg"><path d="M30.816 112h9.856l24.576-74.88L89.696 112h9.856l30.08-87.936h-11.264l-24.32 71.168-23.296-71.168H59.616L36.32 95.232 12 24.064H.736L30.816 112zm176.775-78.464v-9.472h-63.104V112h63.104v-9.472h-52.992V71.936h47.744v-9.472h-47.744V33.536h52.992zM333.414 112h10.88L305.51 24.064h-10.88L255.846 112h10.88l8.832-19.968h49.024L333.414 112zm-53.76-29.44l20.48-46.208 20.352 46.208h-40.832zm146.929-30.336c0-16.512-14.208-28.16-32.384-28.16h-35.712V112h9.984V80.384h23.296L414.039 112h11.392l-22.784-32.512c13.952-2.944 23.936-13.44 23.936-27.264zm-58.112-18.688h23.936c14.336 0 24.064 6.912 24.064 18.688s-9.728 18.688-24.064 18.688h-23.936V33.536zm136.37 0v-9.472h-63.104V112h63.104v-9.472h-52.992V71.936h47.744v-9.472h-47.744V33.536h52.992zM624.657 250h29.696c27.904 0 47.616-18.304 47.616-44.032 0-25.728-19.712-43.904-47.616-43.904h-29.696V250zm9.984-9.088v-69.76h19.712c22.016 0 37.504 14.464 37.504 34.816 0 20.48-15.488 34.944-37.504 34.944h-19.712zm148.7-69.376v-9.472h-63.104V250h63.104v-9.472h-52.992v-30.592h47.744v-9.472h-47.744v-28.928h52.992zm47.61 79.872c20.48 0 30.976-11.392 30.976-25.344 0-15.488-12.032-21.504-28.8-25.472-14.976-3.584-23.68-6.784-23.68-15.872 0-8.064 7.936-15.232 18.816-15.232 9.216 0 17.92 4.224 25.216 11.264l6.144-7.808c-8.064-7.424-17.792-12.544-30.848-12.544-16.896 0-29.44 11.008-29.44 25.088 0 15.232 11.136 20.736 28.8 24.832 15.36 3.584 23.68 7.296 23.68 16.64 0 7.936-6.912 15.36-20.48 15.36-12.288 0-21.376-5.248-28.8-12.672l-6.272 7.808c8.832 8.704 20.224 13.952 34.688 13.952zM878.987 250h9.984v-87.936h-9.984V250zm70.826-36.864h25.216v20.992c-6.528 4.992-16 8.192-24.192 8.192-18.944 0-34.944-16.64-34.944-36.352 0-19.584 16-36.224 34.944-36.224 9.6 0 20.992 4.352 27.392 11.136l6.784-6.912c-8.192-8.32-22.016-13.44-34.176-13.44-24.32 0-45.056 20.736-45.056 45.44 0 24.704 20.736 45.568 45.056 45.568 12.16 0 25.984-5.248 34.176-13.44v-34.432h-35.2v9.472zM1006.53 250h9.99v-71.552L1071.04 250h9.99v-87.936h-9.99v71.552l-54.52-71.552h-9.99V250zm159.69-78.464v-9.472h-63.11V250h63.11v-9.472h-53v-30.592h47.75v-9.472h-47.75v-28.928h53zm85.24 18.688c0-16.512-14.21-28.16-32.39-28.16h-35.71V250h9.99v-31.616h23.29L1238.91 250h11.4l-22.79-32.512c13.95-2.944 23.94-13.44 23.94-27.264zm-58.11-18.688h23.93c14.34 0 24.07 6.912 24.07 18.688s-9.73 18.688-24.07 18.688h-23.93v-37.376zm103.73 79.872c20.48 0 30.97-11.392 30.97-25.344 0-15.488-12.03-21.504-28.8-25.472-14.97-3.584-23.68-6.784-23.68-15.872 0-8.064 7.94-15.232 18.82-15.232 9.21 0 17.92 4.224 25.21 11.264l6.15-7.808c-8.07-7.424-17.79-12.544-30.85-12.544-16.9 0-29.44 11.008-29.44 25.088 0 15.232 11.14 20.736 28.8 24.832 15.36 3.584 23.68 7.296 23.68 16.64 0 7.936-6.91 15.36-20.48 15.36-12.29 0-21.38-5.248-28.8-12.672l-6.27 7.808c8.83 8.704 20.22 13.952 34.69 13.952z" fill="#353535"/><path d="M606 0l1.339 19.708c1.749 25.724 22.229 46.204 47.953 47.953L675 69l-19.708 1.34c-25.724 1.748-46.204 22.228-47.953 47.952L606 138l-1.339-19.708c-1.749-25.724-22.229-46.204-47.953-47.953L537 69l19.708-1.34c25.724-1.748 46.204-22.228 47.953-47.952L606 0z" fill="#8C64FF"/></svg>