<svg width="163" height="32" fill="none" xmlns="http://www.w3.org/2000/svg"><path d="M162.363 10.564c.052.795-.342 1.675-1.308 2.636-.964.96-2.442 1.944-4.412 2.932-3.935 1.974-9.719 3.91-16.945 5.693-14.443 3.566-34.547 6.504-56.883 7.962-22.335 1.459-42.65 1.16-57.434-.498-7.397-.83-13.384-1.996-17.542-3.442-2.082-.723-3.675-1.507-4.755-2.333-1.083-.828-1.588-1.648-1.64-2.444-.052-.795.342-1.674 1.308-2.636.963-.96 2.442-1.944 4.411-2.932 3.935-1.974 9.72-3.91 16.946-5.693C38.552 6.243 58.655 3.305 80.99 1.847c22.336-1.458 42.651-1.16 57.435.498 7.396.83 13.384 1.996 17.542 3.442 2.081.723 3.675 1.507 4.755 2.333 1.083.828 1.588 1.648 1.64 2.444z" stroke="#8C64FF"/></svg>