<svg width="155" height="61" fill="none" xmlns="http://www.w3.org/2000/svg"><path d="M3.614 8.48l3.51 10.192L10.686 8.48h3.276L8.58 22H5.538L.182 8.48h3.432zm23.183 9.516c-.242 1.404-.84 2.496-1.794 3.276-.953.763-2.322 1.144-4.108 1.144-2.149 0-3.787-.615-4.913-1.846-1.11-1.248-1.664-2.999-1.664-5.252 0-1.161.155-2.193.468-3.094.329-.901.78-1.655 1.351-2.262a5.668 5.668 0 0 1 2.08-1.404c.815-.33 1.708-.494 2.678-.494 1.04 0 1.942.165 2.704.494a4.875 4.875 0 0 1 1.898 1.352c.503.572.876 1.265 1.119 2.08.242.797.364 1.69.364 2.678v1.3h-9.698c.034 1.23.346 2.227.936 2.99.589.763 1.482 1.144 2.677 1.144.936 0 1.639-.182 2.107-.546.468-.364.78-.884.936-1.56h2.86zm-2.704-4.082c0-1.11-.26-1.985-.78-2.626-.52-.641-1.351-.962-2.495-.962-1.093 0-1.925.33-2.497.988-.572.641-.9 1.508-.988 2.6h6.76zm8.375-5.434v2.002c.467-.71 1.03-1.257 1.69-1.638a4.136 4.136 0 0 1 2.105-.572c.295 0 .538.009.729.026.208.017.407.043.598.078l-.339 2.704a3.346 3.346 0 0 0-.623-.104 9.174 9.174 0 0 0-.703-.026c-.554 0-1.04.095-1.456.286a3.26 3.26 0 0 0-1.066.702 3.276 3.276 0 0 0-.65 1.014 3.116 3.116 0 0 0-.208 1.118V22h-2.938V8.48h2.86zm12.59 11.544c1.248 0 2.158-.425 2.73-1.274.589-.867.884-2.045.884-3.536 0-1.473-.295-2.635-.884-3.484-.572-.85-1.482-1.274-2.73-1.274s-2.167.433-2.756 1.3c-.572.85-.858 2.002-.858 3.458 0 1.473.277 2.643.832 3.51.572.867 1.499 1.3 2.782 1.3zm-.026 2.392c-2.115 0-3.753-.624-4.914-1.872-1.162-1.248-1.742-3.016-1.742-5.304 0-1.075.147-2.054.442-2.938.312-.884.754-1.638 1.326-2.262a5.88 5.88 0 0 1 2.106-1.456c.832-.347 1.776-.52 2.834-.52 1.074 0 2.028.182 2.86.546.832.347 1.525.832 2.08 1.456.572.624.996 1.378 1.274 2.262.294.867.442 1.82.442 2.86 0 1.179-.165 2.219-.494 3.12a6.405 6.405 0 0 1-1.404 2.262 5.775 5.775 0 0 1-2.106 1.378c-.815.312-1.716.468-2.704.468zm11.57-4.03V22h-3.146v-3.614h3.146zm.556-7.566V8.48h2.132V4.84h2.938v3.64h3.354v2.34h-3.354v7.072c0 .693.138 1.196.416 1.508.294.312.72.468 1.274.468.294 0 .572-.017.832-.052.277-.035.546-.095.806-.182l.442 2.21a8.503 8.503 0 0 1-2.704.416c-1.49 0-2.53-.381-3.12-1.144-.59-.78-.884-1.941-.884-3.484V10.82h-2.132zm22.244 7.176c-.243 1.404-.84 2.496-1.794 3.276-.954.763-2.323 1.144-4.108 1.144-2.15 0-3.788-.615-4.914-1.846-1.11-1.248-1.664-2.999-1.664-5.252 0-1.161.156-2.193.468-3.094.33-.901.78-1.655 1.352-2.262a5.668 5.668 0 0 1 2.08-1.404c.814-.33 1.707-.494 2.678-.494 1.04 0 1.941.165 2.704.494a4.875 4.875 0 0 1 1.898 1.352c.502.572.875 1.265 1.118 2.08.242.797.364 1.69.364 2.678v1.3h-9.698c.034 1.23.346 2.227.936 2.99.59.763 1.482 1.144 2.678 1.144.936 0 1.638-.182 2.106-.546.468-.364.78-.884.936-1.56h2.86zm-2.704-4.082c0-1.11-.26-1.985-.78-2.626-.52-.641-1.352-.962-2.496-.962-1.092 0-1.924.33-2.496.988-.572.641-.902 1.508-.988 2.6h6.76zm11.754 1.768c-.884.052-1.603.147-2.158.286-.537.139-.953.32-1.248.546-.295.208-.494.46-.598.754-.087.277-.13.58-.13.91 0 .59.182 1.049.546 1.378.381.33.936.494 1.664.494 1.3 0 2.262-.33 2.886-.988.624-.659.936-1.551.936-2.678v-.78l-1.898.078zm1.95 4.55a6.294 6.294 0 0 1-1.846 1.508c-.728.399-1.612.598-2.652.598-.641 0-1.24-.087-1.794-.26a4.109 4.109 0 0 1-1.456-.728 3.65 3.65 0 0 1-.962-1.248c-.225-.52-.338-1.127-.338-1.82 0-.936.208-1.69.624-2.262a4.285 4.285 0 0 1 1.612-1.378 7.655 7.655 0 0 1 2.262-.676 20.313 20.313 0 0 1 2.496-.26l2.002-.104v-.572c0-1.023-.251-1.725-.754-2.106-.486-.399-1.127-.598-1.924-.598-.919 0-1.603.156-2.054.468-.433.312-.72.763-.858 1.352l-2.704-.286c.243-1.317.84-2.28 1.794-2.886.953-.607 2.262-.91 3.926-.91 1.075 0 1.959.139 2.652.416.71.277 1.274.659 1.69 1.144.416.485.702 1.066.858 1.742.173.659.26 1.387.26 2.184V22h-2.834v-1.768zm8.68-11.752v1.95c.935-1.3 2.045-2.054 3.327-2.262.33-.052.676-.078 1.04-.078.919.035 1.664.269 2.236.702.572.416.988.988 1.248 1.716 1.196-1.63 2.67-2.444 4.42-2.444 1.439 0 2.496.399 3.172 1.196.676.797 1.014 2.071 1.014 3.822V22h-2.964v-8.112c0-.659-.043-1.205-.13-1.638-.086-.433-.216-.771-.39-1.014a1.138 1.138 0 0 0-.624-.52 2.361 2.361 0 0 0-.884-.156c-.52 0-.979.095-1.378.286-.398.19-.736.442-1.014.754a3.39 3.39 0 0 0-.598 1.066c-.138.381-.208.78-.208 1.196V22h-2.964v-8.398c0-1.161-.182-1.959-.546-2.392-.346-.433-.832-.65-1.456-.65-.26 0-.572.06-.936.182a3.285 3.285 0 0 0-1.066.546 3.46 3.46 0 0 0-.858 1.04c-.242.433-.364.962-.364 1.586V22h-2.938V8.48h2.86z" fill="#363636"/><path d="M8.154 44.614a4.704 4.704 0 0 1-1.368 1.224c-.504.3-1.122.45-1.854.45-.684 0-1.278-.132-1.782-.396a3.604 3.604 0 0 1-1.224-1.062 4.614 4.614 0 0 1-.72-1.53 7.13 7.13 0 0 1-.234-1.836c0-1.584.366-2.814 1.098-3.69.744-.888 1.764-1.332 3.06-1.332.504 0 1.02.108 1.548.324.528.216 1.02.624 1.476 1.224v-4.842h1.044V46H8.154v-1.386zm.054-3.618c0-.42-.024-.78-.072-1.08a3.444 3.444 0 0 0-.216-.81 2.004 2.004 0 0 0-.396-.63 3.916 3.916 0 0 0-.558-.522 3.064 3.064 0 0 0-.864-.468 2.9 2.9 0 0 0-.954-.144c-.444 0-.852.078-1.224.234a2.408 2.408 0 0 0-.972.702c-.264.324-.474.744-.63 1.26-.156.516-.234 1.146-.234 1.89 0 .756.084 1.392.252 1.908.18.504.408.912.684 1.224.276.3.582.516.918.648.348.12.696.18 1.044.18.372 0 .702-.042.99-.126.3-.084.606-.24.918-.468.42-.312.744-.708.972-1.188.228-.48.342-1.08.342-1.8v-.81zm3.385-4.266h1.044V46h-1.044v-9.27zm-.072-3.582h1.188v1.566h-1.188v-1.566zm4.52 13.86c.132.612.42 1.062.864 1.35.444.3 1.122.45 2.034.45 1.02 0 1.77-.252 2.25-.756.48-.492.72-1.326.72-2.502v-1.386c-.384.54-.84.96-1.368 1.26-.516.288-1.134.432-1.854.432-.684 0-1.278-.126-1.782-.378a3.635 3.635 0 0 1-1.242-1.044 4.453 4.453 0 0 1-.72-1.476 6.52 6.52 0 0 1-.234-1.746c0-.72.096-1.374.288-1.962a4.192 4.192 0 0 1 .828-1.494 3.65 3.65 0 0 1 1.314-.972c.516-.228 1.098-.342 1.746-.342.516 0 1.038.114 1.566.342.528.216 1.014.618 1.458 1.206v-1.26h1.044v8.928c0 1.248-.324 2.232-.972 2.952-.636.72-1.644 1.08-3.024 1.08-.528 0-1.02-.048-1.476-.144a3.726 3.726 0 0 1-1.188-.468 2.483 2.483 0 0 1-.828-.828c-.216-.336-.354-.75-.414-1.242h.99zm5.904-6.012c0-.42-.024-.78-.072-1.08a2.577 2.577 0 0 0-.216-.81 2.2 2.2 0 0 0-.378-.63 3.916 3.916 0 0 0-.558-.522 3.426 3.426 0 0 0-.864-.468 2.9 2.9 0 0 0-.954-.144c-.444 0-.852.072-1.224.216a2.48 2.48 0 0 0-.972.684c-.276.312-.492.714-.648 1.206-.156.48-.234 1.062-.234 1.746 0 .696.084 1.284.252 1.764.18.468.408.852.684 1.152.276.288.588.498.936.63.348.132.702.198 1.062.198.396 0 .732-.042 1.008-.126.276-.084.57-.234.882-.45.42-.312.738-.708.954-1.188.228-.492.342-1.104.342-1.836v-.342zm3.403-4.266h1.044V46h-1.044v-9.27zm-.072-3.582h1.188v1.566h-1.188v-1.566zm4.034 4.446h-1.44v-.864h1.44v-2.556h1.044v2.556h2.628v.864h-2.628v6.066c0 .456.096.846.288 1.17.192.312.528.468 1.008.468.312 0 .576-.024.792-.072.216-.048.408-.102.576-.162l.216.846c-.18.072-.402.138-.666.198-.252.06-.588.09-1.008.09-.528 0-.942-.09-1.242-.27-.3-.18-.528-.414-.684-.702a3.001 3.001 0 0 1-.27-1.026 12.93 12.93 0 0 1-.054-1.206v-5.4zm11.143 7.092a4.975 4.975 0 0 1-.558.576 4.136 4.136 0 0 1-1.656.828 4.303 4.303 0 0 1-1.08.126c-.971 0-1.752-.234-2.34-.702-.588-.468-.882-1.164-.882-2.088 0-.624.133-1.134.397-1.53a2.807 2.807 0 0 1 1.043-.936 4.842 4.842 0 0 1 1.494-.468 13.648 13.648 0 0 1 1.746-.18l1.8-.072v-.288c0-.912-.18-1.578-.54-1.998-.348-.42-.977-.63-1.89-.63a5.12 5.12 0 0 0-1.134.108c-.3.072-.552.18-.756.324a1.565 1.565 0 0 0-.486.486c-.12.18-.21.384-.27.612l-.953-.144c.336-1.512 1.547-2.268 3.636-2.268.648 0 1.194.078 1.637.234.444.156.798.384 1.063.684.276.288.474.648.594 1.08.12.42.18.906.18 1.458V46h-1.044v-1.314zm-.018-3.618l-1.71.072c-.696.024-1.278.09-1.745.198-.468.096-.846.24-1.134.432-.288.18-.498.408-.63.684-.12.264-.18.582-.18.954 0 .564.155 1.02.468 1.368.324.336.882.504 1.674.504a5.46 5.46 0 0 0 1.17-.126c.395-.096.72-.246.971-.45a3.51 3.51 0 0 0 .523-.45 1.8 1.8 0 0 0 .342-.468c.096-.18.162-.378.198-.594.035-.216.053-.468.053-.756v-1.368zm3.445-7.92h1.044V46H43.88V33.148zm13.19 11.538a4.975 4.975 0 0 1-.558.576 4.136 4.136 0 0 1-1.656.828 4.303 4.303 0 0 1-1.08.126c-.972 0-1.752-.234-2.34-.702-.588-.468-.882-1.164-.882-2.088 0-.624.132-1.134.396-1.53a2.807 2.807 0 0 1 1.044-.936 4.842 4.842 0 0 1 1.494-.468 13.648 13.648 0 0 1 1.746-.18l1.8-.072v-.288c0-.912-.18-1.578-.54-1.998-.348-.42-.978-.63-1.89-.63a5.12 5.12 0 0 0-1.134.108c-.3.072-.552.18-.756.324a1.565 1.565 0 0 0-.486.486c-.12.18-.21.384-.27.612l-.954-.144c.336-1.512 1.548-2.268 3.636-2.268.648 0 1.194.078 1.638.234.444.156.798.384 1.062.684.276.288.474.648.594 1.08.12.42.18.906.18 1.458V46H57.07v-1.314zm-.018-3.618l-1.71.072c-.696.024-1.278.09-1.746.198-.468.096-.846.24-1.134.432-.288.18-.498.408-.63.684-.12.264-.18.582-.18.954 0 .564.156 1.02.468 1.368.324.336.882.504 1.674.504a5.46 5.46 0 0 0 1.17-.126c.396-.096.72-.246.972-.45.216-.156.39-.306.522-.45a1.8 1.8 0 0 0 .342-.468c.096-.18.162-.378.198-.594.036-.216.054-.468.054-.756v-1.368zm4.399 5.94c.132.612.42 1.062.864 1.35.444.3 1.122.45 2.034.45 1.02 0 1.77-.252 2.25-.756.48-.492.72-1.326.72-2.502v-1.386c-.384.54-.84.96-1.368 1.26-.516.288-1.134.432-1.854.432-.684 0-1.278-.126-1.782-.378a3.635 3.635 0 0 1-1.242-1.044 4.453 4.453 0 0 1-.72-1.476 6.52 6.52 0 0 1-.234-1.746c0-.72.096-1.374.288-1.962a4.192 4.192 0 0 1 .828-1.494 3.65 3.65 0 0 1 1.314-.972c.516-.228 1.098-.342 1.746-.342.516 0 1.038.114 1.566.342.528.216 1.014.618 1.458 1.206v-1.26h1.044v8.928c0 1.248-.324 2.232-.972 2.952-.636.72-1.644 1.08-3.024 1.08-.528 0-1.02-.048-1.476-.144a3.726 3.726 0 0 1-1.188-.468 2.483 2.483 0 0 1-.828-.828c-.216-.336-.354-.75-.414-1.242h.99zm5.904-6.012c0-.42-.024-.78-.072-1.08a2.577 2.577 0 0 0-.216-.81 2.2 2.2 0 0 0-.378-.63 3.916 3.916 0 0 0-.558-.522 3.426 3.426 0 0 0-.864-.468 2.9 2.9 0 0 0-.954-.144c-.444 0-.852.072-1.224.216a2.48 2.48 0 0 0-.972.684c-.276.312-.492.714-.648 1.206-.156.48-.234 1.062-.234 1.746 0 .696.084 1.284.252 1.764.18.468.408.852.684 1.152.276.288.588.498.936.63.348.132.702.198 1.062.198.396 0 .732-.042 1.008-.126.276-.084.57-.234.882-.45.42-.312.738-.708.954-1.188.228-.492.342-1.104.342-1.836v-.342zm11.09 2.574a3.156 3.156 0 0 1-1.153 1.962c-.624.504-1.512.756-2.664.756-1.332 0-2.37-.426-3.114-1.278-.732-.864-1.098-2.046-1.098-3.546 0-.816.102-1.536.306-2.16.216-.624.51-1.146.882-1.566a3.741 3.741 0 0 1 1.332-.972 4.338 4.338 0 0 1 1.692-.324c.72 0 1.332.12 1.836.36.504.228.912.546 1.224.954.324.396.558.87.702 1.422a7.04 7.04 0 0 1 .216 1.782v.666h-7.128c0 .528.066 1.026.198 1.494.132.456.33.858.594 1.206.264.336.594.606.99.81.396.192.852.288 1.368.288.468 0 .864-.042 1.188-.126a2.43 2.43 0 0 0 .81-.396c.216-.168.384-.36.504-.576.132-.228.234-.48.306-.756h1.008zm-.919-2.844a5.56 5.56 0 0 0-.162-1.386 2.995 2.995 0 0 0-.504-1.08 2.225 2.225 0 0 0-.9-.72c-.372-.168-.816-.252-1.332-.252-.9 0-1.62.282-2.16.846-.54.564-.864 1.428-.972 2.592h6.03zm3.07-3.996h1.044v1.512c.504-.636 1.038-1.092 1.602-1.368a4.05 4.05 0 0 1 1.836-.432c1.056 0 1.836.294 2.34.882.504.588.756 1.422.756 2.502V46H87.13v-5.886c0-.972-.174-1.668-.522-2.088-.348-.432-.9-.648-1.656-.648-.36 0-.744.072-1.152.216a2.953 2.953 0 0 0-1.08.648c-.36.312-.63.636-.81.972-.18.324-.27.774-.27 1.35V46h-1.044v-9.27zm17.706 6.246c-.18 1.044-.595 1.86-1.243 2.448-.647.576-1.53.864-2.645.864-.672 0-1.273-.108-1.8-.324a3.614 3.614 0 0 1-1.333-.972 4.557 4.557 0 0 1-.828-1.548c-.192-.6-.288-1.278-.288-2.034 0-.756.102-1.44.306-2.052a4.595 4.595 0 0 1 .864-1.566 3.687 3.687 0 0 1 1.35-.99c.54-.24 1.147-.36 1.819-.36 1.02 0 1.83.264 2.43.792.612.516 1.014 1.248 1.206 2.196l-1.008.252a4.505 4.505 0 0 0-.306-.936 2.51 2.51 0 0 0-.504-.738 2.187 2.187 0 0 0-.775-.486c-.3-.12-.66-.18-1.08-.18-.564 0-1.043.102-1.44.306a2.805 2.805 0 0 0-.99.846 3.384 3.384 0 0 0-.576 1.26 6.752 6.752 0 0 0-.18 1.602c0 .576.06 1.11.18 1.602s.306.918.558 1.278c.252.36.576.642.972.846.409.204.894.306 1.459.306.9 0 1.553-.216 1.962-.648.42-.444.701-1.032.845-1.764h1.044zm1.74 5.382c.144.06.294.108.45.144.168.036.342.054.522.054.216 0 .396-.024.54-.072a.937.937 0 0 0 .396-.27c.12-.12.228-.282.324-.486.108-.192.228-.444.36-.756l.432-1.098-3.978-9.144h1.206l3.366 7.938 3.006-7.938h1.17l-4.212 10.494a8.55 8.55 0 0 1-.45.936 2.74 2.74 0 0 1-.504.72c-.18.204-.396.354-.648.45a2.275 2.275 0 0 1-.9.162c-.276 0-.51-.018-.702-.054a3.245 3.245 0 0 1-.63-.162l.252-.918z" fill="#353535" fill-opacity=".6"/></svg>