<svg width="1339" height="235" fill="none" xmlns="http://www.w3.org/2000/svg"><path d="M.032 102h29.696c27.904 0 47.616-18.304 47.616-44.032 0-25.728-19.712-43.904-47.616-43.904H.032V102zm9.984-9.088v-69.76h19.712c22.016 0 37.504 14.464 37.504 34.816 0 20.48-15.488 34.944-37.504 34.944H10.016zM95.612 102h9.984V14.064h-9.984V102zm70.826-36.864h25.216v20.992c-6.528 4.992-16 8.192-24.192 8.192-18.944 0-34.944-16.64-34.944-36.352 0-19.584 16-36.224 34.944-36.224 9.6 0 20.992 4.352 27.392 11.136l6.784-6.912c-8.192-8.32-22.016-13.44-34.176-13.44-24.32 0-45.056 20.736-45.056 45.44 0 24.704 20.736 45.568 45.056 45.568 12.16 0 25.984-5.248 34.176-13.44V55.664h-35.2v9.472zM221.237 102h9.984V14.064h-9.984V102zm55.466 0h9.984V23.536h29.568v-9.472h-69.12v9.472h29.568V102zm117.961 0h10.88L366.76 14.064h-10.88L317.096 102h10.88l8.832-19.968h49.024L394.664 102zm-53.76-29.44l20.48-46.208 20.352 46.208h-40.832zm87.409 19.968V14.064h-9.984V102h57.984v-9.472h-48zM599.414 102h10.88L571.51 14.064h-10.88L521.846 102h10.88l8.832-19.968h49.024L599.414 102zm-53.76-29.44l20.48-46.208 20.352 46.208h-40.832zm117.034-7.424h25.216v20.992c-6.528 4.992-16 8.192-24.192 8.192-18.944 0-34.944-16.64-34.944-36.352 0-19.584 16-36.224 34.944-36.224 9.6 0 20.992 4.352 27.392 11.136l6.784-6.912c-8.192-8.32-22.016-13.44-34.176-13.44-24.32 0-45.056 20.736-45.056 45.44 0 24.704 20.736 45.568 45.056 45.568 12.16 0 25.984-5.248 34.176-13.44V55.664h-35.2v9.472zm117.903-41.6v-9.472h-63.104V102h63.104v-9.472h-52.992V61.936h47.744v-9.472h-47.744V23.536h52.992zM799.657 102h9.984V30.448L864.169 102h9.984V14.064h-9.984v71.552l-54.528-71.552h-9.984V102zm138.18 1.536c12.16 0 23.424-5.248 31.616-13.44l-6.784-6.912c-6.4 6.784-15.232 11.136-24.832 11.136-18.944 0-34.944-16.64-34.944-36.352 0-19.584 16-36.224 34.944-36.224 9.6 0 18.432 4.352 24.832 11.136l6.784-6.912c-8.192-8.32-19.456-13.44-31.616-13.44-24.32 0-45.056 20.736-45.056 45.44 0 24.704 20.736 45.568 45.056 45.568zM1010.89 102h10.49V66.16l35.33-52.096h-12.03l-28.55 42.624-28.285-42.624h-12.416l35.461 52.096V102zm-793.674 52.536v-9.472h-63.104V233h10.112v-40.064h47.744v-9.472h-47.744v-28.928h52.992zm56.496 80c24.448 0 44.928-20.864 44.928-45.568 0-24.704-20.48-45.44-44.928-45.44-24.32 0-45.056 20.736-45.056 45.44 0 24.704 20.736 45.568 45.056 45.568zm0-9.216c-18.944 0-34.944-16.64-34.944-36.352 0-19.584 16-36.224 34.944-36.224 18.944 0 34.816 16.64 34.816 36.224 0 19.712-15.872 36.352-34.816 36.352zm103.25 9.216c12.16 0 23.424-5.248 31.616-13.44l-6.784-6.912c-6.4 6.784-15.232 11.136-24.832 11.136-18.944 0-34.944-16.64-34.944-36.352 0-19.584 16-36.224 34.944-36.224 9.6 0 18.432 4.352 24.832 11.136l6.784-6.912c-8.192-8.32-19.456-13.44-31.616-13.44-24.32 0-45.056 20.736-45.056 45.44 0 24.704 20.736 45.568 45.056 45.568zm83.032 0c21.504 0 36.736-15.744 36.736-38.016v-51.456h-9.984v51.456c0 16.896-11.136 28.928-26.752 28.928s-26.752-12.032-26.752-28.928v-51.456h-9.984v51.456c0 22.272 15.232 38.016 36.736 38.016zm88.332-.128c20.48 0 30.976-11.392 30.976-25.344 0-15.488-12.032-21.504-28.8-25.472-14.976-3.584-23.68-6.784-23.68-15.872 0-8.064 7.936-15.232 18.816-15.232 9.216 0 17.92 4.224 25.216 11.264l6.144-7.808c-8.064-7.424-17.792-12.544-30.848-12.544-16.896 0-29.44 11.008-29.44 25.088 0 15.232 11.136 20.736 28.8 24.832 15.36 3.584 23.68 7.296 23.68 16.64 0 7.936-6.912 15.36-20.48 15.36-12.288 0-21.376-5.248-28.8-12.672l-6.272 7.808c8.832 8.704 20.224 13.952 34.688 13.952zm111.14-79.872v-9.472h-63.104V233h63.104v-9.472h-52.992v-30.592h47.744v-9.472h-47.744v-28.928h52.992zM678.532 233h29.696c27.904 0 47.616-18.304 47.616-44.032 0-25.728-19.712-43.904-47.616-43.904h-29.696V233zm9.984-9.088v-69.76h19.712c22.016 0 37.504 14.464 37.504 34.816 0 20.48-15.488 34.944-37.504 34.944h-19.712zm164.321 10.624c24.448 0 44.928-20.864 44.928-45.568 0-24.704-20.48-45.44-44.928-45.44-24.32 0-45.056 20.736-45.056 45.44 0 24.704 20.736 45.568 45.056 45.568zm0-9.216c-18.944 0-34.944-16.64-34.944-36.352 0-19.584 16-36.224 34.944-36.224 18.944 0 34.816 16.64 34.816 36.224 0 19.712-15.872 36.352-34.816 36.352zm63.57 7.68h9.984v-71.552L980.919 233h9.984v-87.936h-9.984v71.552l-54.528-71.552h-9.984V233zm158.413 0h9.85l24.58-74.88L1133.7 233h9.85l30.08-87.936h-11.26l-24.32 71.168-23.3-71.168h-11.13l-23.3 71.168-24.32-71.168h-11.26L1074.82 233zm176.77-78.464v-9.472h-63.1V233h63.1v-9.472h-52.99v-30.592h47.74v-9.472h-47.74v-28.928h52.99zM1270.66 233h41.85c15.24 0 26.11-9.984 26.11-24.064 0-9.6-5.88-17.536-16-22.656 7.94-4.608 12.55-9.984 12.55-19.328 0-12.8-9.98-21.888-24.19-21.888h-40.32V233zm9.98-50.688v-28.16h27.78c9.72 0 16.64 5.888 16.64 14.08s-6.92 14.08-16.64 14.08h-27.78zm0 41.6V191.4h29.31c10.88 0 18.56 6.784 18.56 16.256 0 9.472-7.68 16.256-18.56 16.256h-29.31z" fill="#353535"/><path d="M1131 0l1.11 16.28c1.44 21.251 18.36 38.17 39.61 39.614L1188 57l-16.28 1.106c-21.25 1.445-38.17 18.363-39.61 39.614L1131 114l-1.11-16.28c-1.44-21.251-18.36-38.17-39.61-39.614L1074 57l16.28-1.106c21.25-1.445 38.17-18.363 39.61-39.614L1131 0z" fill="#8C64FF"/></svg>