<svg width="335" height="131" fill="none" xmlns="http://www.w3.org/2000/svg"><path fill-rule="evenodd" clip-rule="evenodd" d="M330.5 113.013c1.207-1.138 1.778-2.253 1.849-3.337.072-1.083-.347-2.264-1.394-3.55-1.052-1.293-2.69-2.628-4.909-3.975-4.436-2.693-11.004-5.318-19.261-7.714-16.497-4.789-39.52-8.605-65.151-10.298-25.63-1.692-48.956-.936-65.939 1.64-8.5 1.29-15.356 3.03-20.108 5.115-2.377 1.044-4.176 2.152-5.388 3.295-1.208 1.138-1.779 2.253-1.85 3.337-.072 1.083.347 2.264 1.395 3.55 1.052 1.293 2.689 2.628 4.908 3.975 4.436 2.693 11.005 5.318 19.261 7.714 16.497 4.789 39.52 8.605 65.151 10.298 25.631 1.692 48.956.936 65.939-1.641 8.5-1.29 15.357-3.028 20.108-5.114 2.377-1.044 4.176-2.152 5.389-3.295zm-91.502 11.048c51.361 3.391 93.603-3.019 94.349-14.319.746-11.3-40.285-23.209-91.647-26.6-51.361-3.392-93.603 3.018-94.349 14.318-.746 11.299 40.286 23.209 91.647 26.601z" fill="#8C64FF"/><path d="M.346 28h9.048c8.502 0 14.508-5.577 14.508-13.416S17.896 1.207 9.394 1.207H.346V28zm3.042-2.769V3.976h6.006c6.708 0 11.427 4.407 11.427 10.608 0 6.24-4.72 10.647-11.427 10.647H3.388zM29.468 28h3.042V1.207h-3.042V28zm21.579-11.232h7.684v6.396c-1.99 1.521-4.876 2.496-7.372 2.496-5.772 0-10.647-5.07-10.647-11.076 0-5.967 4.875-11.037 10.647-11.037 2.925 0 6.396 1.326 8.346 3.393l2.068-2.106C59.276 2.299 55.064.739 51.358.739c-7.41 0-13.727 6.318-13.727 13.845 0 7.527 6.318 13.884 13.727 13.884 3.706 0 7.917-1.599 10.413-4.095V13.882H51.049v2.886zM67.744 28h3.042V1.207h-3.042V28zm16.9 0h3.042V4.093h9.009V1.207h-21.06v2.886h9.009V28zm35.941 0h3.315L112.083 1.207h-3.315L96.951 28h3.315l2.691-6.084h14.937L120.585 28zm-16.38-8.97l6.24-14.079 6.201 14.079h-12.441zm26.633 6.084V1.207h-3.042V28h17.667v-2.886h-14.625zM182.97 28h3.315L174.468 1.207h-3.315L159.336 28h3.315l2.691-6.084h14.937L182.97 28zm-16.38-8.97l6.24-14.079 6.201 14.079H166.59zm35.659-2.262h7.683v6.396c-1.989 1.521-4.875 2.496-7.371 2.496-5.772 0-10.647-5.07-10.647-11.076 0-5.967 4.875-11.037 10.647-11.037 2.925 0 6.396 1.326 8.346 3.393l2.067-2.106c-2.496-2.535-6.708-4.095-10.413-4.095-7.41 0-13.728 6.318-13.728 13.845 0 7.527 6.318 13.884 13.728 13.884 3.705 0 7.917-1.599 10.413-4.095V13.882h-10.725v2.886zm35.923-12.675V1.207h-19.227V28h19.227v-2.886h-16.146v-9.321h14.547v-2.886h-14.547V4.093h16.146zM243.981 28h3.042V6.199L263.637 28h3.042V1.207h-3.042v21.801L247.023 1.207h-3.042V28zm42.102.468c3.705 0 7.137-1.599 9.633-4.095l-2.067-2.106c-1.95 2.067-4.641 3.393-7.566 3.393-5.772 0-10.647-5.07-10.647-11.076 0-5.967 4.875-11.037 10.647-11.037 2.925 0 5.616 1.326 7.566 3.393l2.067-2.106c-2.496-2.535-5.928-4.095-9.633-4.095-7.41 0-13.728 6.318-13.728 13.845 0 7.527 6.318 13.884 13.728 13.884zM308.34 28h3.198V17.08l10.764-15.873h-3.666l-8.697 12.987-8.619-12.987h-3.783L308.34 17.08V28zM156.402 49.093v-2.886h-19.227V73h3.081V60.793h14.547v-2.886h-14.547v-8.814h16.146zm17.213 24.375c7.449 0 13.689-6.357 13.689-13.884s-6.24-13.845-13.689-13.845c-7.41 0-13.728 6.318-13.728 13.845 0 7.527 6.318 13.884 13.728 13.884zm0-2.808c-5.772 0-10.647-5.07-10.647-11.076 0-5.967 4.875-11.037 10.647-11.037s10.608 5.07 10.608 11.037c0 6.006-4.836 11.076-10.608 11.076zm31.459 2.808c3.705 0 7.137-1.599 9.633-4.095l-2.067-2.106c-1.95 2.067-4.641 3.393-7.566 3.393-5.772 0-10.647-5.07-10.647-11.076 0-5.967 4.875-11.037 10.647-11.037 2.925 0 5.616 1.326 7.566 3.393l2.067-2.106c-2.496-2.535-5.928-4.095-9.633-4.095-7.41 0-13.728 6.318-13.728 13.845 0 7.527 6.318 13.884 13.728 13.884zm25.299 0c6.552 0 11.193-4.797 11.193-11.583V46.207h-3.042v15.678c0 5.148-3.393 8.814-8.151 8.814s-8.151-3.666-8.151-8.814V46.207h-3.042v15.678c0 6.786 4.641 11.583 11.193 11.583zm26.914-.039c6.24 0 9.438-3.471 9.438-7.722 0-4.719-3.666-6.552-8.775-7.761-4.563-1.092-7.215-2.067-7.215-4.836 0-2.457 2.418-4.641 5.733-4.641 2.808 0 5.46 1.287 7.683 3.432l1.872-2.379c-2.457-2.262-5.421-3.822-9.399-3.822-5.148 0-8.97 3.354-8.97 7.644 0 4.641 3.393 6.318 8.775 7.566 4.68 1.092 7.215 2.223 7.215 5.07 0 2.418-2.106 4.68-6.24 4.68-3.744 0-6.513-1.599-8.775-3.861l-1.911 2.379c2.691 2.652 6.162 4.251 10.569 4.251zm33.863-24.336v-2.886h-19.227V73h19.227v-2.886h-16.146v-9.321h14.547v-2.886h-14.547v-8.814h16.146zM296.959 73h9.048c8.502 0 14.508-5.577 14.508-13.416s-6.006-13.377-14.508-13.377h-9.048V73zm3.042-2.769V48.976h6.006c6.708 0 11.427 4.407 11.427 10.608 0 6.24-4.719 10.647-11.427 10.647h-6.006zm-127.224 46.237c7.449 0 13.689-6.357 13.689-13.884s-6.24-13.845-13.689-13.845c-7.41 0-13.728 6.318-13.728 13.845 0 7.527 6.318 13.884 13.728 13.884zm0-2.808c-5.772 0-10.647-5.07-10.647-11.076 0-5.967 4.875-11.037 10.647-11.037s10.608 5.07 10.608 11.037c0 6.006-4.836 11.076-10.608 11.076zm19.369 2.34h3.042V94.199L211.802 116h3.042V89.207h-3.042v21.801l-16.614-21.801h-3.042V116zm48.266 0h3.003l7.488-22.815L258.352 116h3.003l9.165-26.793h-3.432l-7.41 21.684-7.098-21.684h-3.393l-7.098 21.684-7.41-21.684h-3.432L240.412 116zm53.861-23.907v-2.886h-19.227V116h19.227v-2.886h-16.146v-9.321h14.547v-2.886h-14.547v-8.814h16.146zM300.082 116h12.753c4.641 0 7.956-3.042 7.956-7.332 0-2.925-1.794-5.343-4.875-6.903 2.418-1.404 3.822-3.042 3.822-5.889 0-3.9-3.042-6.669-7.371-6.669h-12.285V116zm3.042-15.444v-8.58h8.463c2.964 0 5.07 1.794 5.07 4.29s-2.106 4.29-5.07 4.29h-8.463zm0 12.675v-9.906h8.931c3.315 0 5.655 2.067 5.655 4.953s-2.34 4.953-5.655 4.953h-8.931z" fill="#353535"/></svg>