<svg width="1361" height="352" fill="none" xmlns="http://www.w3.org/2000/svg"><path d="M34.816 112h9.856l24.576-74.88L93.696 112h9.856l30.08-87.936h-11.264l-24.32 71.168-23.296-71.168H63.616L40.32 95.232 16 24.064H4.736L34.816 112zm176.775-78.464v-9.472h-63.104V112h63.104v-9.472h-52.992V71.936h47.744v-9.472h-47.744V33.536h52.992zm95.871 80c12.16 0 23.424-5.248 31.616-13.44l-6.784-6.912c-6.4 6.784-15.232 11.136-24.832 11.136-18.944 0-34.944-16.64-34.944-36.352 0-19.584 16-36.224 34.944-36.224 9.6 0 18.432 4.352 24.832 11.136l6.784-6.912c-8.192-8.32-19.456-13.44-31.616-13.44-24.32 0-45.056 20.736-45.056 45.44 0 24.704 20.736 45.568 45.056 45.568zm113.496-61.312c0-16.512-14.208-28.16-32.384-28.16h-35.712V112h9.984V80.384h23.296L408.414 112h11.392l-22.784-32.512c13.952-2.944 23.936-13.44 23.936-27.264zm-58.112-18.688h23.936c14.336 0 24.064 6.912 24.064 18.688s-9.728 18.688-24.064 18.688h-23.936V33.536zm136.37 0v-9.472h-63.104V112h63.104v-9.472h-52.992V71.936h47.744v-9.472h-47.744V33.536h52.992zM587.914 112h10.88L560.01 24.064h-10.88L510.346 112h10.88l8.832-19.968h49.024L587.914 112zm-53.76-29.44l20.48-46.208 20.352 46.208h-40.832zM630.328 112h9.984V33.536h29.568v-9.472h-69.12v9.472h29.568V112zm118.513-78.464v-9.472h-63.104V112h63.104v-9.472h-52.992V71.936h47.744v-9.472h-47.744V33.536h52.992zM381.135 253h10.496v-35.84l35.328-52.096h-12.032l-28.544 42.624-28.288-42.624h-12.416l35.456 52.096V253zm99.827 1.536c24.448 0 44.928-20.864 44.928-45.568 0-24.704-20.48-45.44-44.928-45.44-24.32 0-45.056 20.736-45.056 45.44 0 24.704 20.736 45.568 45.056 45.568zm0-9.216c-18.944 0-34.944-16.64-34.944-36.352 0-19.584 16-36.224 34.944-36.224 18.944 0 34.816 16.64 34.816 36.224 0 19.712-15.872 36.352-34.816 36.352zm99.282 9.216c21.504 0 36.736-15.744 36.736-38.016v-51.456h-9.984v51.456c0 16.896-11.136 28.928-26.752 28.928s-26.752-12.032-26.752-28.928v-51.456h-9.984v51.456c0 22.272 15.232 38.016 36.736 38.016zm125.964-61.312c0-16.512-14.208-28.16-32.384-28.16h-35.712V253h9.984v-31.616h23.296L693.664 253h11.392l-22.784-32.512c13.952-2.944 23.936-13.44 23.936-27.264zm-58.112-18.688h23.936c14.336 0 24.064 6.912 24.064 18.688s-9.728 18.688-24.064 18.688h-23.936v-37.376zm150.967 41.6h25.216v20.992c-6.528 4.992-16 8.192-24.192 8.192-18.944 0-34.944-16.64-34.944-36.352 0-19.584 16-36.224 34.944-36.224 9.6 0 20.992 4.352 27.392 11.136l6.784-6.912c-8.192-8.32-22.016-13.44-34.176-13.44-24.32 0-45.056 20.736-45.056 45.44 0 24.704 20.736 45.568 45.056 45.568 12.16 0 25.984-5.248 34.176-13.44v-34.432h-35.2v9.472zm122.895-22.912c0-16.512-14.208-28.16-32.384-28.16h-35.712V253h9.984v-31.616h23.296L909.414 253h11.392l-22.784-32.512c13.952-2.944 23.936-13.44 23.936-27.264zm-58.112-18.688h23.936c14.336 0 24.064 6.912 24.064 18.688s-9.728 18.688-24.064 18.688h-23.936v-37.376zm114.866 80c24.448 0 44.928-20.864 44.928-45.568 0-24.704-20.48-45.44-44.928-45.44-24.32 0-45.056 20.736-45.056 45.44 0 24.704 20.736 45.568 45.056 45.568zm0-9.216c-18.944 0-34.944-16.64-34.944-36.352 0-19.584 16-36.224 34.944-36.224 18.944 0 34.818 16.64 34.818 36.224 0 19.712-15.874 36.352-34.818 36.352zm83.108 7.68h9.85l24.58-74.88L1120.7 253h9.85l30.08-87.936h-11.26l-24.32 71.168-23.3-71.168h-11.13l-23.3 71.168-24.32-71.168h-11.26L1061.82 253zm138.88 0h9.99v-78.464h29.57v-9.472h-69.12v9.472h29.56V253zm117.24-87.936v38.4h-51.84v-38.4h-9.99V253h9.99v-40.064h51.84V253h9.98v-87.936h-9.98z" fill="#353535"/><path d="M841 0l1.339 19.708c1.749 25.724 22.229 46.204 47.953 47.953L910 69l-19.708 1.34c-25.724 1.748-46.204 22.228-47.953 47.952L841 138l-1.339-19.708c-1.749-25.724-22.229-46.204-47.953-47.953L772 69l19.708-1.34c25.724-1.748 46.204-22.228 47.953-47.952L841 0z" fill="#8C64FF"/></svg>