<svg width="30" height="18" fill="none" xmlns="http://www.w3.org/2000/svg"><path clip-rule="evenodd" d="M12.733 1.009c-.533.039-1.208.142-1.478.227-.464.144-1.042.66-.935.834.02.032.127.075.239.096.502.093.925.38 1.115.753.325.64.47 2.638.296 4.053-.115.935-.164 1.152-.335 1.49-.459.91-1.512.174-2.674-1.868-.413-.726-1.576-3.058-1.835-3.68-.314-.753-.413-.891-.77-1.073l-.3-.154-2.272.016c-2.052.015-2.289.026-2.45.114-.253.14-.362.33-.328.577.036.266.897 2.19 1.532 3.423 1.236 2.4 2.283 4.143 3.402 5.664 1.646 2.237 2.374 2.963 4.056 4.043.785.504 1.352.786 2.053 1.02.962.324 1.381.386 2.818.42 1.43.032 1.842-.01 2.145-.217.25-.171.326-.407.373-1.141.046-.724.187-1.346.38-1.677.171-.293.542-.631.701-.639.556-.027.867.204 2.027 1.512 1.089 1.225 1.49 1.586 2.092 1.875.27.13.603.262.739.294.328.075 4.761-.01 5.047-.097.284-.087.59-.388.596-.587.02-.546-.06-.792-.44-1.369-.5-.758-.929-1.242-2.39-2.696-1.552-1.543-1.66-1.687-1.663-2.203-.001-.434.2-.767 1.563-2.58 1.921-2.558 2.69-3.793 2.905-4.665.125-.51.054-.757-.27-.93l-.23-.124-2.765.018c-1.953.013-2.803.037-2.898.082-.186.089-.383.41-.63 1.027-.656 1.644-2.007 4.013-2.898 5.08-.355.425-.905.86-1.09.86-.256 0-.467-.167-.628-.495l-.148-.303.015-2.855c.016-3.07.01-3.162-.273-3.567-.279-.4-.958-.536-2.78-.56a37.232 37.232 0 0 0-1.614.002z" stroke="#fff" stroke-width="1.7"/></svg>