<svg width="505" height="88" fill="none" xmlns="http://www.w3.org/2000/svg"><path d="M30.816 88h9.856l24.576-74.88L89.696 88h9.856L129.632.064h-11.264l-24.32 71.168L70.752.064H59.616L36.32 71.232 12 .064H.736L30.816 88zM207.591 9.536V.064h-63.104V88h63.104v-9.472h-52.992V47.936h47.744v-9.472h-47.744V9.536h52.992zM333.414 88h10.88L305.51.064h-10.88L255.846 88h10.88l8.832-19.968h49.024L333.414 88zm-53.76-29.44l20.48-46.208 20.352 46.208h-40.832zm146.929-30.336c0-16.512-14.208-28.16-32.384-28.16h-35.712V88h9.984V56.384h23.296L414.039 88h11.392l-22.784-32.512c13.952-2.944 23.936-13.44 23.936-27.264zM368.471 9.536h23.936c14.336 0 24.064 6.912 24.064 18.688s-9.728 18.688-24.064 18.688h-23.936V9.536zm136.37 0V.064h-63.104V88h63.104v-9.472h-52.992V47.936h47.744v-9.472h-47.744V9.536h52.992z" fill="#353535"/></svg>