<svg width="280" height="35" fill="none" xmlns="http://www.w3.org/2000/svg"><path d="M12.056 34h3.696l9.216-28.08L34.136 34h3.696l11.28-32.976h-4.224l-9.12 26.688-8.736-26.688h-4.176L14.12 27.712 5 1.024H.776L12.056 34zM78.347 4.576V1.024H54.683V34h23.664v-3.552H58.475V18.976h17.904v-3.552H58.475V4.576h19.872zm35.951 30c4.56 0 8.784-1.968 11.856-5.04l-2.544-2.592c-2.4 2.544-5.712 4.176-9.312 4.176-7.104 0-13.104-6.24-13.104-13.632 0-7.344 6-13.584 13.104-13.584 3.6 0 6.912 1.632 9.312 4.176l2.544-2.592c-3.072-3.12-7.296-5.04-11.856-5.04-9.12 0-16.896 7.776-16.896 17.04s7.776 17.088 16.896 17.088zm42.561-22.992c0-6.192-5.328-10.56-12.144-10.56h-13.392V34h3.744V22.144h8.736L152.155 34h4.272l-8.544-12.192c5.232-1.104 8.976-5.04 8.976-10.224zm-21.792-7.008h8.976c5.376 0 9.024 2.592 9.024 7.008s-3.648 7.008-9.024 7.008h-8.976V4.576zm51.139 0V1.024h-23.664V34h23.664v-3.552h-19.872V18.976h17.904v-3.552h-17.904V4.576h19.872zM219.468 34h4.08L209.004 1.024h-4.08L190.38 34h4.08l3.312-7.488h18.384L219.468 34zm-20.16-11.04l7.68-17.328 7.632 17.328h-15.312zM235.373 34h3.744V4.576h11.088V1.024h-25.92v3.552h11.088V34zm44.442-29.424V1.024h-23.664V34h23.664v-3.552h-19.872V18.976h17.904v-3.552h-17.904V4.576h19.872z" fill="#353535"/></svg>