<svg width="337" height="145" fill="none" xmlns="http://www.w3.org/2000/svg"><path d="M12.056 40h3.696l9.216-28.08L34.136 40h3.696l11.28-32.976h-4.224l-9.12 26.688-8.736-26.688h-4.176L14.12 33.712 5 7.024H.776L12.056 40zm66.291-29.424V7.024H54.683V40h23.664v-3.552H58.475V24.976h17.904v-3.552H58.475V10.576h19.872zm35.951 30c4.56 0 8.784-1.968 11.856-5.04l-2.544-2.592c-2.4 2.544-5.712 4.176-9.312 4.176-7.104 0-13.104-6.24-13.104-13.632 0-7.344 6-13.584 13.104-13.584 3.6 0 6.912 1.632 9.312 4.176l2.544-2.592c-3.072-3.12-7.296-5.04-11.856-5.04-9.12 0-16.896 7.776-16.896 17.04s7.776 17.088 16.896 17.088zm42.561-22.992c0-6.192-5.328-10.56-12.144-10.56h-13.392V40h3.744V28.144h8.736L152.155 40h4.272l-8.544-12.192c5.232-1.104 8.976-5.04 8.976-10.224zm-21.792-7.008h8.976c5.376 0 9.024 2.592 9.024 7.008s-3.648 7.008-9.024 7.008h-8.976V10.576zm51.139 0V7.024h-23.664V40h23.664v-3.552h-19.872V24.976h17.904v-3.552h-17.904V10.576h19.872zM219.468 40h4.08L209.004 7.024h-4.08L190.38 40h4.08l3.312-7.488h18.384L219.468 40zm-20.16-11.04l7.68-17.328 7.632 17.328h-15.312zM235.373 40h3.744V10.576h11.088V7.024h-25.92v3.552h11.088V40zm44.442-29.424V7.024h-23.664V40h23.664v-3.552h-19.872V24.976h17.904v-3.552h-17.904V10.576h19.872zM214.207 96h3.936V82.56l13.248-19.536h-4.512l-10.704 15.984-10.608-15.984h-4.656l13.296 19.536V96zm37.435.576c9.168 0 16.848-7.824 16.848-17.088 0-9.264-7.68-17.04-16.848-17.04-9.12 0-16.896 7.776-16.896 17.04s7.776 17.088 16.896 17.088zm0-3.456c-7.104 0-13.104-6.24-13.104-13.632 0-7.344 6-13.584 13.104-13.584 7.104 0 13.056 6.24 13.056 13.584 0 7.392-5.952 13.632-13.056 13.632zm37.231 3.456c8.064 0 13.776-5.904 13.776-14.256V63.024h-3.744V82.32c0 6.336-4.176 10.848-10.032 10.848s-10.032-4.512-10.032-10.848V63.024h-3.744V82.32c0 8.352 5.712 14.256 13.776 14.256zm47.236-22.992c0-6.192-5.328-10.56-12.144-10.56h-13.392V96h3.744V84.144h8.736L331.405 96h4.272l-8.544-12.192c5.232-1.104 8.976-5.04 8.976-10.224zm-21.792-7.008h8.976c5.376 0 9.024 2.592 9.024 7.008s-3.648 7.008-9.024 7.008h-8.976V66.576zm-178.418 63.6h9.456v7.872c-2.448 1.872-6 3.072-9.072 3.072-7.104 0-13.104-6.24-13.104-13.632 0-7.344 6-13.584 13.104-13.584 3.6 0 7.872 1.632 10.272 4.176l2.544-2.592c-3.072-3.12-8.256-5.04-12.816-5.04-9.12 0-16.896 7.776-16.896 17.04s7.776 17.088 16.896 17.088c4.56 0 9.744-1.968 12.816-5.04v-12.912h-13.2v3.552zm46.085-8.592c0-6.192-5.328-10.56-12.144-10.56h-13.392V144h3.744v-11.856h8.736L177.28 144h4.272l-8.544-12.192c5.232-1.104 8.976-5.04 8.976-10.224zm-21.792-7.008h8.976c5.376 0 9.024 2.592 9.024 7.008s-3.648 7.008-9.024 7.008h-8.976v-14.016zm43.075 30c9.168 0 16.848-7.824 16.848-17.088 0-9.264-7.68-17.04-16.848-17.04-9.12 0-16.896 7.776-16.896 17.04s7.776 17.088 16.896 17.088zm0-3.456c-7.104 0-13.104-6.24-13.104-13.632 0-7.344 6-13.584 13.104-13.584 7.104 0 13.056 6.24 13.056 13.584 0 7.392-5.952 13.632-13.056 13.632zm31.164 2.88h3.696l9.216-28.08 9.168 28.08h3.696l11.28-32.976h-4.224l-9.12 26.688-8.736-26.688h-4.176l-8.736 26.688-9.12-26.688h-4.224L234.431 144zm52.083 0h3.744v-29.424h11.088v-3.552h-25.92v3.552h11.088V144zm43.962-32.976v14.4h-19.44v-14.4h-3.744V144h3.744v-15.024h19.44V144h3.744v-32.976h-3.744z" fill="#353535"/><path d="M313 0l.446 6.57c.583 8.574 7.41 15.4 15.985 15.983L336 23l-6.569.447c-8.575.582-15.402 7.409-15.985 15.984L313 46l-.446-6.57c-.583-8.574-7.41-15.4-15.985-15.983L290 23l6.569-.447c8.575-.582 15.402-7.409 15.985-15.984L313 0z" fill="#8C64FF"/></svg>