<svg width="1324" height="253" fill="none" xmlns="http://www.w3.org/2000/svg"><path d="M30.816 113h9.856l24.576-74.88L89.696 113h9.856l30.08-87.936h-11.264l-24.32 71.168-23.296-71.168H59.616L36.32 96.232 12 25.064H.736L30.816 113zm176.775-78.464v-9.472h-63.104V113h63.104v-9.472h-52.992V72.936h47.744v-9.472h-47.744V34.536h52.992zM333.414 113h10.88L305.51 25.064h-10.88L255.846 113h10.88l8.832-19.968h49.024L333.414 113zm-53.76-29.44l20.48-46.208 20.352 46.208h-40.832zm146.929-30.336c0-16.512-14.208-28.16-32.384-28.16h-35.712V113h9.984V81.384h23.296L414.039 113h11.392l-22.784-32.512c13.952-2.944 23.936-13.44 23.936-27.264zm-58.112-18.688h23.936c14.336 0 24.064 6.912 24.064 18.688s-9.728 18.688-24.064 18.688h-23.936V34.536zm136.37 0v-9.472h-63.104V113h63.104v-9.472h-52.992V72.936h47.744v-9.472h-47.744V34.536h52.992zm149.323 128.528l-33.28 75.648-33.408-75.648h-10.88L615.38 251h10.88l38.784-87.936h-10.88zm88.177 9.472v-9.472h-63.104V251h63.104v-9.472h-52.992v-30.592h47.744v-9.472h-47.744v-28.928h52.992zm85.242 18.688c0-16.512-14.208-28.16-32.384-28.16h-35.712V251h9.984v-31.616h23.296L815.039 251h11.392l-22.784-32.512c13.952-2.944 23.936-13.44 23.936-27.264zm-58.112-18.688h23.936c14.336 0 24.064 6.912 24.064 18.688s-9.728 18.688-24.064 18.688h-23.936v-37.376zm114.866 80c24.448 0 44.928-20.864 44.928-45.568 0-24.704-20.48-45.44-44.928-45.44-24.32 0-45.056 20.736-45.056 45.44 0 24.704 20.736 45.568 45.056 45.568zm0-9.216c-18.944 0-34.944-16.64-34.944-36.352 0-19.584 16-36.224 34.944-36.224 18.944 0 34.816 16.64 34.816 36.224 0 19.712-15.872 36.352-34.816 36.352zm67.922 9.216c3.712 0 6.784-3.2 6.784-7.04 0-3.584-3.072-6.784-6.784-6.784-3.968 0-7.04 3.2-7.04 6.784a7.02 7.02 0 0 0 7.04 7.04zM1003.58 251h9.98v-78.464h29.57v-9.472h-69.12v9.472h29.57V251zm118.51-78.464v-9.472h-63.1V251h63.1v-9.472h-52.99v-30.592h47.74v-9.472h-47.74v-28.928h52.99zm88.7 78.464h10.88l-38.79-87.936H1172L1133.22 251h10.88l8.83-19.968h49.03l8.83 19.968zm-53.76-29.44l20.48-46.208 20.35 46.208h-40.83zm80.75 29.44h9.99v-66.432l32.64 61.312 32.64-61.312V251h9.98v-87.936h-9.98l-32.64 61.312-32.64-61.312h-9.99V251z" fill="#353535"/><path d="M609 0l1.339 19.708c1.749 25.724 22.229 46.204 47.953 47.953L678 69l-19.708 1.34c-25.724 1.748-46.204 22.228-47.953 47.952L609 138l-1.339-19.708c-1.749-25.724-22.229-46.204-47.953-47.953L540 69l19.708-1.34c25.724-1.748 46.204-22.228 47.953-47.952L609 0z" fill="#8C64FF"/></svg>