<svg width="242" height="35" fill="none" xmlns="http://www.w3.org/2000/svg"><path d="M11.806 34h3.696l9.216-28.08L33.886 34h3.696l11.28-32.976h-4.224l-9.12 26.688-8.736-26.688h-4.176L13.87 27.712 4.75 1.024H.526L11.806 34zM78.097 4.576V1.024H54.433V34h23.664v-3.552H58.225V18.976h17.904v-3.552H58.225V4.576h19.872zM85.246 34h15.696c5.712 0 9.792-3.744 9.792-9.024 0-3.6-2.208-6.576-6-8.496 2.976-1.728 4.704-3.744 4.704-7.248 0-4.8-3.744-8.208-9.072-8.208h-15.12V34zm3.744-19.008V4.432h10.416c3.648 0 6.24 2.208 6.24 5.28s-2.592 5.28-6.24 5.28H88.99zm0 15.6V18.4h10.992c4.08 0 6.96 2.544 6.96 6.096s-2.88 6.096-6.96 6.096H88.99zm39.679 3.936c7.68 0 11.616-4.272 11.616-9.504 0-5.808-4.512-8.064-10.8-9.552-5.616-1.344-8.88-2.544-8.88-5.952 0-3.024 2.976-5.712 7.056-5.712 3.456 0 6.72 1.584 9.456 4.224l2.304-2.928C136.397 2.32 132.749.4 127.853.4c-6.336 0-11.04 4.128-11.04 9.408 0 5.712 4.176 7.776 10.8 9.312 5.76 1.344 8.88 2.736 8.88 6.24 0 2.976-2.592 5.76-7.68 5.76-4.608 0-8.016-1.968-10.8-4.752l-2.352 2.928c3.312 3.264 7.584 5.232 13.008 5.232zM146.683 34h3.744V1.024h-3.744V34zm20.799 0h3.744V4.576h11.088V1.024h-25.92v3.552h11.088V34zm44.443-29.424V1.024h-23.664V34h23.664v-3.552h-19.872V18.976h17.904v-3.552h-17.904V4.576h19.872zm17.854 29.952c7.68 0 11.616-4.272 11.616-9.504 0-5.808-4.512-8.064-10.8-9.552-5.616-1.344-8.88-2.544-8.88-5.952 0-3.024 2.976-5.712 7.056-5.712 3.456 0 6.72 1.584 9.456 4.224l2.303-2.928C237.506 2.32 233.858.4 228.962.4c-6.336 0-11.04 4.128-11.04 9.408 0 5.712 4.177 7.776 10.801 9.312 5.76 1.344 8.88 2.736 8.88 6.24 0 2.976-2.592 5.76-7.68 5.76-4.608 0-8.017-1.968-10.801-4.752l-2.351 2.928c3.312 3.264 7.584 5.232 13.008 5.232z" fill="#353535"/></svg>